<?xml version="1.0" encoding="UTF-8" standalone="no"?>
<!DOCTYPE svg PUBLIC "-//W3C//DTD SVG 1.1//EN"
 "http://www.w3.org/Graphics/SVG/1.1/DTD/svg11.dtd">
<!-- Generated by graphviz version 2.46.1 (20210213.1702)
 -->
<!-- Pages: 1 -->
<svg width="163pt" height="510pt"
 viewBox="0.00 0.00 163.00 510.00" xmlns="http://www.w3.org/2000/svg" xmlns:xlink="http://www.w3.org/1999/xlink">
<g id="graph0" class="graph" transform="scale(1 1) rotate(0) translate(4 506)">
<polygon fill="white" stroke="transparent" points="-4,4 -4,-506 159,-506 159,4 -4,4"/>
<!-- fake -->
<g id="node1" class="node">
<title>fake</title>
</g>
<!-- S -->
<g id="node7" class="node">
<title>S</title>
<ellipse fill="none" stroke="black" cx="43" cy="-411" rx="27" ry="18"/>
<text text-anchor="middle" x="43" y="-407.3" font-family="Times New Roman,serif" font-size="14.00">S</text>
</g>
<!-- fake&#45;&gt;S -->
<g id="edge1" class="edge">
<title>fake&#45;&gt;S</title>
<path fill="none" stroke="black" stroke-width="2" d="M43,-465.81C43,-457.79 43,-448.05 43,-439.07"/>
<polygon fill="black" stroke="black" stroke-width="2" points="46.5,-439.03 43,-429.03 39.5,-439.03 46.5,-439.03"/>
</g>
<!-- C -->
<g id="node2" class="node">
<title>C</title>
<ellipse fill="none" stroke="black" cx="108" cy="-179" rx="18" ry="18"/>
<ellipse fill="none" stroke="black" cx="108" cy="-179" rx="22" ry="22"/>
<text text-anchor="middle" x="108" y="-175.3" font-family="Times New Roman,serif" font-size="14.00">C</text>
</g>
<!-- C&#45;&gt;C -->
<g id="edge5" class="edge">
<title>C&#45;&gt;C</title>
<path fill="none" stroke="black" d="M127.76,-189.43C138.35,-191.2 148,-187.72 148,-179 148,-173.28 143.84,-169.81 137.99,-168.61"/>
<polygon fill="black" stroke="black" points="137.77,-165.11 127.76,-168.57 137.75,-172.11 137.77,-165.11"/>
<text text-anchor="middle" x="151.5" y="-175.3" font-family="Times New Roman,serif" font-size="14.00">a</text>
</g>
<!-- E -->
<g id="node6" class="node">
<title>E</title>
<ellipse fill="none" stroke="black" cx="57" cy="-22" rx="18" ry="18"/>
<ellipse fill="none" stroke="black" cx="57" cy="-22" rx="22" ry="22"/>
<text text-anchor="middle" x="57" y="-18.3" font-family="Times New Roman,serif" font-size="14.00">E</text>
</g>
<!-- C&#45;&gt;E -->
<g id="edge11" class="edge">
<title>C&#45;&gt;E</title>
<path fill="none" stroke="black" d="M101.87,-157.82C96.7,-140.98 89.05,-116.36 82,-95 77.42,-81.12 72.13,-65.81 67.61,-52.89"/>
<polygon fill="black" stroke="black" points="70.79,-51.39 64.17,-43.12 64.19,-53.71 70.79,-51.39"/>
<text text-anchor="middle" x="99" y="-113.3" font-family="Times New Roman,serif" font-size="14.00">b</text>
</g>
<!-- D -->
<g id="node3" class="node">
<title>D</title>
<ellipse fill="none" stroke="black" cx="26" cy="-117" rx="18" ry="18"/>
<ellipse fill="none" stroke="black" cx="26" cy="-117" rx="22" ry="22"/>
<text text-anchor="middle" x="26" y="-113.3" font-family="Times New Roman,serif" font-size="14.00">D</text>
</g>
<!-- D&#45;&gt;D -->
<g id="edge13" class="edge">
<title>D&#45;&gt;D</title>
<path fill="none" stroke="black" d="M46.58,-125.37C56.84,-126.53 66,-123.74 66,-117 66,-112.68 62.24,-109.99 56.84,-108.91"/>
<polygon fill="black" stroke="black" points="56.67,-105.41 46.58,-108.63 56.48,-112.4 56.67,-105.41"/>
<text text-anchor="middle" x="69.5" y="-113.3" font-family="Times New Roman,serif" font-size="14.00">a</text>
</g>
<!-- D&#45;&gt;E -->
<g id="edge2" class="edge">
<title>D&#45;&gt;E</title>
<path fill="none" stroke="black" d="M23.91,-94.95C23.62,-84.73 24.33,-72.44 28,-62 29.89,-56.63 32.8,-51.38 36.06,-46.56"/>
<polygon fill="black" stroke="black" points="38.97,-48.52 42.16,-38.41 33.36,-44.32 38.97,-48.52"/>
<text text-anchor="middle" x="32" y="-65.8" font-family="Times New Roman,serif" font-size="14.00">b</text>
</g>
<!-- B -->
<g id="node4" class="node">
<title>B</title>
<ellipse fill="none" stroke="black" cx="27" cy="-237" rx="27" ry="18"/>
<text text-anchor="middle" x="27" y="-233.3" font-family="Times New Roman,serif" font-size="14.00">B</text>
</g>
<!-- B&#45;&gt;D -->
<g id="edge6" class="edge">
<title>B&#45;&gt;D</title>
<path fill="none" stroke="black" d="M26.85,-218.84C26.7,-200.63 26.45,-171.47 26.26,-149.17"/>
<polygon fill="black" stroke="black" points="29.76,-149.14 26.18,-139.17 22.76,-149.2 29.76,-149.14"/>
<text text-anchor="middle" x="30.5" y="-175.3" font-family="Times New Roman,serif" font-size="14.00">a</text>
</g>
<!-- B&#45;&gt;B -->
<g id="edge3" class="edge">
<title>B&#45;&gt;B</title>
<path fill="none" stroke="black" d="M51.53,-244.75C62.51,-245.49 72,-242.91 72,-237 72,-233.03 67.72,-230.56 61.57,-229.59"/>
<polygon fill="black" stroke="black" points="61.65,-226.09 51.53,-229.25 61.41,-233.09 61.65,-226.09"/>
<text text-anchor="middle" x="76" y="-233.3" font-family="Times New Roman,serif" font-size="14.00">b</text>
</g>
<!-- A -->
<g id="node5" class="node">
<title>A</title>
<ellipse fill="none" stroke="black" cx="80" cy="-324" rx="27" ry="18"/>
<text text-anchor="middle" x="80" y="-320.3" font-family="Times New Roman,serif" font-size="14.00">A</text>
</g>
<!-- A&#45;&gt;C -->
<g id="edge8" class="edge">
<title>A&#45;&gt;C</title>
<path fill="none" stroke="black" d="M83.32,-306.03C87.91,-282.58 96.28,-239.84 101.99,-210.7"/>
<polygon fill="black" stroke="black" points="105.47,-211.12 103.96,-200.64 98.6,-209.78 105.47,-211.12"/>
<text text-anchor="middle" x="92.5" y="-276.8" font-family="Times New Roman,serif" font-size="14.00">a</text>
</g>
<!-- A&#45;&gt;B -->
<g id="edge7" class="edge">
<title>A&#45;&gt;B</title>
<path fill="none" stroke="black" d="M70.03,-307.01C62.26,-294.55 51.33,-277.01 42.43,-262.74"/>
<polygon fill="black" stroke="black" points="45.19,-260.55 36.92,-253.92 39.25,-264.25 45.19,-260.55"/>
<text text-anchor="middle" x="61" y="-276.8" font-family="Times New Roman,serif" font-size="14.00">b</text>
</g>
<!-- E&#45;&gt;D -->
<g id="edge4" class="edge">
<title>E&#45;&gt;D</title>
<path fill="none" stroke="black" d="M50.29,-43.14C46.11,-55.68 40.65,-72.05 35.97,-86.09"/>
<polygon fill="black" stroke="black" points="32.57,-85.23 32.73,-95.82 39.21,-87.44 32.57,-85.23"/>
<text text-anchor="middle" x="47.5" y="-65.8" font-family="Times New Roman,serif" font-size="14.00">a</text>
</g>
<!-- E&#45;&gt;E -->
<g id="edge12" class="edge">
<title>E&#45;&gt;E</title>
<path fill="none" stroke="black" d="M77.58,-30.37C87.84,-31.53 97,-28.74 97,-22 97,-17.68 93.24,-14.99 87.84,-13.91"/>
<polygon fill="black" stroke="black" points="87.67,-10.41 77.58,-13.63 87.48,-17.4 87.67,-10.41"/>
<text text-anchor="middle" x="101" y="-18.3" font-family="Times New Roman,serif" font-size="14.00">b</text>
</g>
<!-- S&#45;&gt;B -->
<g id="edge9" class="edge">
<title>S&#45;&gt;B</title>
<path fill="none" stroke="black" d="M41.17,-392.96C39.71,-379.21 37.65,-359.37 36,-342 33.54,-316.03 31,-286.4 29.25,-265.42"/>
<polygon fill="black" stroke="black" points="32.73,-264.98 28.41,-255.31 25.75,-265.56 32.73,-264.98"/>
<text text-anchor="middle" x="40" y="-320.3" font-family="Times New Roman,serif" font-size="14.00">b</text>
</g>
<!-- S&#45;&gt;A -->
<g id="edge10" class="edge">
<title>S&#45;&gt;A</title>
<path fill="none" stroke="black" d="M50.13,-393.61C55.37,-381.58 62.6,-364.98 68.63,-351.13"/>
<polygon fill="black" stroke="black" points="71.98,-352.19 72.76,-341.63 65.56,-349.4 71.98,-352.19"/>
<text text-anchor="middle" x="66.5" y="-363.8" font-family="Times New Roman,serif" font-size="14.00">a</text>
</g>
</g>
</svg>
