<?xml version="1.0" encoding="UTF-8" standalone="no"?>
<!DOCTYPE svg PUBLIC "-//W3C//DTD SVG 1.1//EN"
 "http://www.w3.org/Graphics/SVG/1.1/DTD/svg11.dtd">
<!-- Generated by graphviz version 2.46.1 (20210213.1702)
 -->
<!-- Pages: 1 -->
<svg width="108pt" height="299pt"
 viewBox="0.00 0.00 108.00 299.00" xmlns="http://www.w3.org/2000/svg" xmlns:xlink="http://www.w3.org/1999/xlink">
<g id="graph0" class="graph" transform="scale(1 1) rotate(0) translate(4 295)">
<polygon fill="white" stroke="transparent" points="-4,4 -4,-295 104,-295 104,4 -4,4"/>
<!-- fake -->
<g id="node1" class="node">
<title>fake</title>
</g>
<!-- S -->
<g id="node4" class="node">
<title>S</title>
<ellipse fill="none" stroke="black" cx="27" cy="-200" rx="27" ry="18"/>
<text text-anchor="middle" x="27" y="-196.3" font-family="Times New Roman,serif" font-size="14.00">S</text>
</g>
<!-- fake&#45;&gt;S -->
<g id="edge1" class="edge">
<title>fake&#45;&gt;S</title>
<path fill="none" stroke="black" stroke-width="2" d="M27,-254.81C27,-246.79 27,-237.05 27,-228.07"/>
<polygon fill="black" stroke="black" stroke-width="2" points="30.5,-228.03 27,-218.03 23.5,-228.03 30.5,-228.03"/>
</g>
<!-- C -->
<g id="node2" class="node">
<title>C</title>
<ellipse fill="none" stroke="black" cx="27" cy="-22" rx="18" ry="18"/>
<ellipse fill="none" stroke="black" cx="27" cy="-22" rx="22" ry="22"/>
<text text-anchor="middle" x="27" y="-18.3" font-family="Times New Roman,serif" font-size="14.00">C</text>
</g>
<!-- C&#45;&gt;C -->
<g id="edge2" class="edge">
<title>C&#45;&gt;C</title>
<path fill="none" stroke="black" d="M48.81,-26.25C58.56,-26.65 67,-25.23 67,-22 67,-19.98 63.7,-18.67 58.85,-18.07"/>
<polygon fill="black" stroke="black" points="58.91,-14.57 48.81,-17.75 58.69,-21.56 58.91,-14.57"/>
<text text-anchor="middle" x="70.5" y="-18.3" font-family="Times New Roman,serif" font-size="14.00">a</text>
</g>
<!-- C&#45;&gt;C -->
<g id="edge6" class="edge">
<title>C&#45;&gt;C</title>
<path fill="none" stroke="black" d="M47.81,-29.2C65.88,-32.49 85,-30.09 85,-22 85,-15.43 72.38,-12.61 57.96,-13.55"/>
<polygon fill="black" stroke="black" points="57.31,-10.1 47.81,-14.8 58.17,-17.05 57.31,-10.1"/>
<text text-anchor="middle" x="89" y="-18.3" font-family="Times New Roman,serif" font-size="14.00">b</text>
</g>
<!-- A -->
<g id="node3" class="node">
<title>A</title>
<ellipse fill="none" stroke="black" cx="27" cy="-113" rx="27" ry="18"/>
<text text-anchor="middle" x="27" y="-109.3" font-family="Times New Roman,serif" font-size="14.00">A</text>
</g>
<!-- A&#45;&gt;C -->
<g id="edge4" class="edge">
<title>A&#45;&gt;C</title>
<path fill="none" stroke="black" d="M27,-94.84C27,-83.44 27,-68.13 27,-54.58"/>
<polygon fill="black" stroke="black" points="30.5,-54.19 27,-44.19 23.5,-54.19 30.5,-54.19"/>
<text text-anchor="middle" x="30.5" y="-65.8" font-family="Times New Roman,serif" font-size="14.00">a</text>
</g>
<!-- A&#45;&gt;A -->
<g id="edge7" class="edge">
<title>A&#45;&gt;A</title>
<path fill="none" stroke="black" d="M51.53,-120.75C62.51,-121.49 72,-118.91 72,-113 72,-109.03 67.72,-106.56 61.57,-105.59"/>
<polygon fill="black" stroke="black" points="61.65,-102.09 51.53,-105.25 61.41,-109.09 61.65,-102.09"/>
<text text-anchor="middle" x="76" y="-109.3" font-family="Times New Roman,serif" font-size="14.00">b</text>
</g>
<!-- S&#45;&gt;A -->
<g id="edge3" class="edge">
<title>S&#45;&gt;A</title>
<path fill="none" stroke="black" d="M18.98,-182.47C15.22,-172.8 11.97,-160.3 14,-149 14.53,-146.07 15.28,-143.06 16.17,-140.1"/>
<polygon fill="black" stroke="black" points="19.57,-140.99 19.54,-130.39 12.95,-138.69 19.57,-140.99"/>
<text text-anchor="middle" x="18" y="-152.8" font-family="Times New Roman,serif" font-size="14.00">b</text>
</g>
<!-- S&#45;&gt;A -->
<g id="edge5" class="edge">
<title>S&#45;&gt;A</title>
<path fill="none" stroke="black" d="M27,-181.8C27,-170.16 27,-154.55 27,-141.24"/>
<polygon fill="black" stroke="black" points="30.5,-141.18 27,-131.18 23.5,-141.18 30.5,-141.18"/>
<text text-anchor="middle" x="30.5" y="-152.8" font-family="Times New Roman,serif" font-size="14.00">a</text>
</g>
</g>
</svg>
