<?xml version="1.0" encoding="UTF-8" standalone="no"?>
<!DOCTYPE svg PUBLIC "-//W3C//DTD SVG 1.1//EN"
 "http://www.w3.org/Graphics/SVG/1.1/DTD/svg11.dtd">
<!-- Generated by graphviz version 2.46.1 (20210213.1702)
 -->
<!-- Pages: 1 -->
<svg width="319pt" height="1433pt"
 viewBox="0.00 0.00 319.00 1433.00" xmlns="http://www.w3.org/2000/svg" xmlns:xlink="http://www.w3.org/1999/xlink">
<g id="graph0" class="graph" transform="scale(1 1) rotate(0) translate(4 1429)">
<polygon fill="white" stroke="transparent" points="-4,4 -4,-1429 315,-1429 315,4 -4,4"/>
<!-- fake -->
<g id="node1" class="node">
<title>fake</title>
</g>
<!-- 12 -->
<g id="node2" class="node">
<title>12</title>
<ellipse fill="none" stroke="black" cx="69" cy="-1334" rx="27" ry="18"/>
<text text-anchor="middle" x="69" y="-1330.3" font-family="Times New Roman,serif" font-size="14.00">12</text>
</g>
<!-- fake&#45;&gt;12 -->
<g id="edge1" class="edge">
<title>fake&#45;&gt;12</title>
<path fill="none" stroke="black" stroke-width="2" d="M69,-1388.81C69,-1380.79 69,-1371.04 69,-1362.07"/>
<polygon fill="black" stroke="black" stroke-width="2" points="72.5,-1362.03 69,-1352.03 65.5,-1362.03 72.5,-1362.03"/>
</g>
<!-- 13 -->
<g id="node10" class="node">
<title>13</title>
<ellipse fill="none" stroke="black" cx="63" cy="-638" rx="27" ry="18"/>
<text text-anchor="middle" x="63" y="-634.3" font-family="Times New Roman,serif" font-size="14.00">13</text>
</g>
<!-- 12&#45;&gt;13 -->
<g id="edge27" class="edge">
<title>12&#45;&gt;13</title>
<path fill="none" stroke="black" d="M62.04,-1316.39C55.59,-1299.49 47,-1272.39 47,-1248 47,-1248 47,-1248 47,-724 47,-704.29 51.21,-682.45 55.3,-665.84"/>
<polygon fill="black" stroke="black" points="58.8,-666.32 57.94,-655.76 52.02,-664.55 58.8,-666.32"/>
<text text-anchor="middle" x="52" y="-982.3" font-family="Times New Roman,serif" font-size="14.00">ε </text>
</g>
<!-- 10 -->
<g id="node23" class="node">
<title>10</title>
<ellipse fill="none" stroke="black" cx="119" cy="-1247" rx="27" ry="18"/>
<text text-anchor="middle" x="119" y="-1243.3" font-family="Times New Roman,serif" font-size="14.00">10</text>
</g>
<!-- 12&#45;&gt;10 -->
<g id="edge16" class="edge">
<title>12&#45;&gt;10</title>
<path fill="none" stroke="black" d="M78.4,-1317.01C85.74,-1304.54 96.05,-1287.01 104.45,-1272.74"/>
<polygon fill="black" stroke="black" points="107.58,-1274.31 109.64,-1263.91 101.55,-1270.76 107.58,-1274.31"/>
<text text-anchor="middle" x="99.5" y="-1286.8" font-family="Times New Roman,serif" font-size="14.00">ε</text>
</g>
<!-- 24 -->
<g id="node3" class="node">
<title>24</title>
<ellipse fill="none" stroke="black" cx="63" cy="-23.5" rx="19.5" ry="19.5"/>
<ellipse fill="none" stroke="black" cx="63" cy="-23.5" rx="23.5" ry="23.5"/>
<text text-anchor="middle" x="63" y="-19.8" font-family="Times New Roman,serif" font-size="14.00">24</text>
</g>
<!-- 20 -->
<g id="node4" class="node">
<title>20</title>
<ellipse fill="none" stroke="black" cx="63" cy="-290" rx="27" ry="18"/>
<text text-anchor="middle" x="63" y="-286.3" font-family="Times New Roman,serif" font-size="14.00">20</text>
</g>
<!-- 20&#45;&gt;24 -->
<g id="edge10" class="edge">
<title>20&#45;&gt;24</title>
<path fill="none" stroke="black" d="M63,-271.64C63,-228.13 63,-113.83 63,-57.23"/>
<polygon fill="black" stroke="black" points="66.5,-57.03 63,-47.03 59.5,-57.04 66.5,-57.03"/>
<text text-anchor="middle" x="68" y="-155.8" font-family="Times New Roman,serif" font-size="14.00">ε </text>
</g>
<!-- 22 -->
<g id="node5" class="node">
<title>22</title>
<ellipse fill="none" stroke="black" cx="102" cy="-203" rx="27" ry="18"/>
<text text-anchor="middle" x="102" y="-199.3" font-family="Times New Roman,serif" font-size="14.00">22</text>
</g>
<!-- 20&#45;&gt;22 -->
<g id="edge12" class="edge">
<title>20&#45;&gt;22</title>
<path fill="none" stroke="black" d="M70.52,-272.61C76.13,-260.38 83.9,-243.44 90.32,-229.45"/>
<polygon fill="black" stroke="black" points="93.51,-230.88 94.5,-220.34 87.15,-227.96 93.51,-230.88"/>
<text text-anchor="middle" x="87.5" y="-242.8" font-family="Times New Roman,serif" font-size="14.00">ε</text>
</g>
<!-- 23 -->
<g id="node22" class="node">
<title>23</title>
<ellipse fill="none" stroke="black" cx="102" cy="-116" rx="27" ry="18"/>
<text text-anchor="middle" x="102" y="-112.3" font-family="Times New Roman,serif" font-size="14.00">23</text>
</g>
<!-- 22&#45;&gt;23 -->
<g id="edge18" class="edge">
<title>22&#45;&gt;23</title>
<path fill="none" stroke="black" d="M96.73,-185.07C95.21,-179.39 93.76,-172.97 93,-167 92.05,-159.5 92.75,-151.43 94.09,-144"/>
<polygon fill="black" stroke="black" points="97.55,-144.58 96.32,-134.05 90.71,-143.05 97.55,-144.58"/>
<text text-anchor="middle" x="97" y="-155.8" font-family="Times New Roman,serif" font-size="14.00">b</text>
</g>
<!-- 18 -->
<g id="node6" class="node">
<title>18</title>
<ellipse fill="none" stroke="black" cx="27" cy="-464" rx="27" ry="18"/>
<text text-anchor="middle" x="27" y="-460.3" font-family="Times New Roman,serif" font-size="14.00">18</text>
</g>
<!-- 19 -->
<g id="node13" class="node">
<title>19</title>
<ellipse fill="none" stroke="black" cx="63" cy="-377" rx="27" ry="18"/>
<text text-anchor="middle" x="63" y="-373.3" font-family="Times New Roman,serif" font-size="14.00">19</text>
</g>
<!-- 18&#45;&gt;19 -->
<g id="edge15" class="edge">
<title>18&#45;&gt;19</title>
<path fill="none" stroke="black" d="M34.11,-446.2C39.22,-434.13 46.21,-417.63 52.03,-403.89"/>
<polygon fill="black" stroke="black" points="55.35,-405.04 56.02,-394.47 48.9,-402.31 55.35,-405.04"/>
<text text-anchor="middle" x="51.5" y="-416.8" font-family="Times New Roman,serif" font-size="14.00">ε</text>
</g>
<!-- 16 -->
<g id="node7" class="node">
<title>16</title>
<ellipse fill="none" stroke="black" cx="27" cy="-551" rx="27" ry="18"/>
<text text-anchor="middle" x="27" y="-547.3" font-family="Times New Roman,serif" font-size="14.00">16</text>
</g>
<!-- 16&#45;&gt;18 -->
<g id="edge2" class="edge">
<title>16&#45;&gt;18</title>
<path fill="none" stroke="black" d="M27,-532.8C27,-521.16 27,-505.54 27,-492.23"/>
<polygon fill="black" stroke="black" points="30.5,-492.17 27,-482.17 23.5,-492.17 30.5,-492.17"/>
<text text-anchor="middle" x="30.5" y="-503.8" font-family="Times New Roman,serif" font-size="14.00">a</text>
</g>
<!-- 3 -->
<g id="node8" class="node">
<title>3</title>
<ellipse fill="none" stroke="black" cx="258" cy="-986" rx="27" ry="18"/>
<text text-anchor="middle" x="258" y="-982.3" font-family="Times New Roman,serif" font-size="14.00">3</text>
</g>
<!-- 2 -->
<g id="node11" class="node">
<title>2</title>
<ellipse fill="none" stroke="black" cx="249" cy="-1073" rx="27" ry="18"/>
<text text-anchor="middle" x="249" y="-1069.3" font-family="Times New Roman,serif" font-size="14.00">2</text>
</g>
<!-- 3&#45;&gt;2 -->
<g id="edge3" class="edge">
<title>3&#45;&gt;2</title>
<path fill="none" stroke="black" d="M256.18,-1004.17C254.95,-1015.8 253.3,-1031.42 251.89,-1044.73"/>
<polygon fill="black" stroke="black" points="248.39,-1044.48 250.82,-1054.8 255.35,-1045.22 248.39,-1044.48"/>
<text text-anchor="middle" x="259" y="-1025.8" font-family="Times New Roman,serif" font-size="14.00">ε </text>
</g>
<!-- 4 -->
<g id="node15" class="node">
<title>4</title>
<ellipse fill="none" stroke="black" cx="258" cy="-899" rx="27" ry="18"/>
<text text-anchor="middle" x="258" y="-895.3" font-family="Times New Roman,serif" font-size="14.00">4</text>
</g>
<!-- 3&#45;&gt;4 -->
<g id="edge4" class="edge">
<title>3&#45;&gt;4</title>
<path fill="none" stroke="black" d="M258,-967.8C258,-956.16 258,-940.54 258,-927.23"/>
<polygon fill="black" stroke="black" points="261.5,-927.17 258,-917.17 254.5,-927.17 261.5,-927.17"/>
<text text-anchor="middle" x="261.5" y="-938.8" font-family="Times New Roman,serif" font-size="14.00">ε</text>
</g>
<!-- 9 -->
<g id="node9" class="node">
<title>9</title>
<ellipse fill="none" stroke="black" cx="148" cy="-1160" rx="27" ry="18"/>
<text text-anchor="middle" x="148" y="-1156.3" font-family="Times New Roman,serif" font-size="14.00">9</text>
</g>
<!-- 5 -->
<g id="node18" class="node">
<title>5</title>
<ellipse fill="none" stroke="black" cx="148" cy="-1073" rx="27" ry="18"/>
<text text-anchor="middle" x="148" y="-1069.3" font-family="Times New Roman,serif" font-size="14.00">5</text>
</g>
<!-- 9&#45;&gt;5 -->
<g id="edge7" class="edge">
<title>9&#45;&gt;5</title>
<path fill="none" stroke="black" d="M148,-1141.8C148,-1130.16 148,-1114.54 148,-1101.23"/>
<polygon fill="black" stroke="black" points="151.5,-1101.17 148,-1091.17 144.5,-1101.17 151.5,-1101.17"/>
<text text-anchor="middle" x="152" y="-1112.8" font-family="Times New Roman,serif" font-size="14.00">b</text>
</g>
<!-- 13&#45;&gt;16 -->
<g id="edge30" class="edge">
<title>13&#45;&gt;16</title>
<path fill="none" stroke="black" d="M55.89,-620.2C50.78,-608.13 43.79,-591.63 37.97,-577.89"/>
<polygon fill="black" stroke="black" points="41.1,-576.31 33.98,-568.47 34.65,-579.04 41.1,-576.31"/>
<text text-anchor="middle" x="51.5" y="-590.8" font-family="Times New Roman,serif" font-size="14.00">ε</text>
</g>
<!-- 15 -->
<g id="node21" class="node">
<title>15</title>
<ellipse fill="none" stroke="black" cx="99" cy="-551" rx="27" ry="18"/>
<text text-anchor="middle" x="99" y="-547.3" font-family="Times New Roman,serif" font-size="14.00">15</text>
</g>
<!-- 13&#45;&gt;15 -->
<g id="edge23" class="edge">
<title>13&#45;&gt;15</title>
<path fill="none" stroke="black" d="M70.11,-620.2C75.22,-608.13 82.21,-591.63 88.03,-577.89"/>
<polygon fill="black" stroke="black" points="91.35,-579.04 92.02,-568.47 84.9,-576.31 91.35,-579.04"/>
<text text-anchor="middle" x="88" y="-590.8" font-family="Times New Roman,serif" font-size="14.00">ε </text>
</g>
<!-- 2&#45;&gt;3 -->
<g id="edge14" class="edge">
<title>2&#45;&gt;3</title>
<path fill="none" stroke="black" d="M243.71,-1055.22C241.36,-1045.46 239.61,-1032.96 242,-1022 242.67,-1018.9 243.65,-1015.74 244.79,-1012.66"/>
<polygon fill="black" stroke="black" points="248.11,-1013.8 248.83,-1003.23 241.68,-1011.04 248.11,-1013.8"/>
<text text-anchor="middle" x="245.5" y="-1025.8" font-family="Times New Roman,serif" font-size="14.00">a</text>
</g>
<!-- 11 -->
<g id="node12" class="node">
<title>11</title>
<ellipse fill="none" stroke="black" cx="125" cy="-725" rx="27" ry="18"/>
<text text-anchor="middle" x="125" y="-721.3" font-family="Times New Roman,serif" font-size="14.00">11</text>
</g>
<!-- 11&#45;&gt;13 -->
<g id="edge22" class="edge">
<title>11&#45;&gt;13</title>
<path fill="none" stroke="black" d="M113.63,-708.41C104.28,-695.59 90.88,-677.22 80.21,-662.59"/>
<polygon fill="black" stroke="black" points="83.02,-660.5 74.3,-654.49 77.37,-664.63 83.02,-660.5"/>
<text text-anchor="middle" x="100.5" y="-677.8" font-family="Times New Roman,serif" font-size="14.00">ε</text>
</g>
<!-- 11&#45;&gt;10 -->
<g id="edge17" class="edge">
<title>11&#45;&gt;10</title>
<path fill="none" stroke="black" d="M115.05,-741.94C105.66,-758.54 93,-785.61 93,-811 93,-1161 93,-1161 93,-1161 93,-1181.44 99.97,-1203.5 106.69,-1220.01"/>
<polygon fill="black" stroke="black" points="103.61,-1221.71 110.77,-1229.52 110.04,-1218.95 103.61,-1221.71"/>
<text text-anchor="middle" x="98" y="-982.3" font-family="Times New Roman,serif" font-size="14.00">ε </text>
</g>
<!-- 19&#45;&gt;20 -->
<g id="edge9" class="edge">
<title>19&#45;&gt;20</title>
<path fill="none" stroke="black" d="M63,-358.8C63,-347.16 63,-331.54 63,-318.23"/>
<polygon fill="black" stroke="black" points="66.5,-318.17 63,-308.17 59.5,-318.17 66.5,-318.17"/>
<text text-anchor="middle" x="66.5" y="-329.8" font-family="Times New Roman,serif" font-size="14.00">a</text>
</g>
<!-- 7 -->
<g id="node14" class="node">
<title>7</title>
<ellipse fill="none" stroke="black" cx="186" cy="-899" rx="27" ry="18"/>
<text text-anchor="middle" x="186" y="-895.3" font-family="Times New Roman,serif" font-size="14.00">7</text>
</g>
<!-- 8 -->
<g id="node16" class="node">
<title>8</title>
<ellipse fill="none" stroke="black" cx="148" cy="-812" rx="27" ry="18"/>
<text text-anchor="middle" x="148" y="-808.3" font-family="Times New Roman,serif" font-size="14.00">8</text>
</g>
<!-- 7&#45;&gt;8 -->
<g id="edge8" class="edge">
<title>7&#45;&gt;8</title>
<path fill="none" stroke="black" d="M178.67,-881.61C173.26,-869.5 165.78,-852.76 159.56,-838.86"/>
<polygon fill="black" stroke="black" points="162.58,-837.04 155.3,-829.34 156.19,-839.89 162.58,-837.04"/>
<text text-anchor="middle" x="172.5" y="-851.8" font-family="Times New Roman,serif" font-size="14.00">ε</text>
</g>
<!-- 6 -->
<g id="node17" class="node">
<title>6</title>
<ellipse fill="none" stroke="black" cx="186" cy="-986" rx="27" ry="18"/>
<text text-anchor="middle" x="186" y="-982.3" font-family="Times New Roman,serif" font-size="14.00">6</text>
</g>
<!-- 7&#45;&gt;6 -->
<g id="edge29" class="edge">
<title>7&#45;&gt;6</title>
<path fill="none" stroke="black" d="M186,-917.17C186,-928.8 186,-944.42 186,-957.73"/>
<polygon fill="black" stroke="black" points="182.5,-957.8 186,-967.8 189.5,-957.8 182.5,-957.8"/>
<text text-anchor="middle" x="191" y="-938.8" font-family="Times New Roman,serif" font-size="14.00">ε </text>
</g>
<!-- 4&#45;&gt;11 -->
<g id="edge11" class="edge">
<title>4&#45;&gt;11</title>
<path fill="none" stroke="black" d="M247.42,-882.15C233.46,-861.46 207.84,-824.3 184,-794 171.68,-778.33 156.99,-761.4 145.35,-748.35"/>
<polygon fill="black" stroke="black" points="147.83,-745.87 138.55,-740.77 142.62,-750.55 147.83,-745.87"/>
<text text-anchor="middle" x="213.5" y="-808.3" font-family="Times New Roman,serif" font-size="14.00">ε</text>
</g>
<!-- 8&#45;&gt;11 -->
<g id="edge19" class="edge">
<title>8&#45;&gt;11</title>
<path fill="none" stroke="black" d="M143.46,-794.2C140.24,-782.33 135.87,-766.16 132.19,-752.55"/>
<polygon fill="black" stroke="black" points="135.53,-751.49 129.53,-742.75 128.77,-753.32 135.53,-751.49"/>
<text text-anchor="middle" x="140.5" y="-764.8" font-family="Times New Roman,serif" font-size="14.00">ε</text>
</g>
<!-- 6&#45;&gt;7 -->
<g id="edge31" class="edge">
<title>6&#45;&gt;7</title>
<path fill="none" stroke="black" d="M181.32,-968.04C179.96,-962.35 178.67,-955.94 178,-950 177.16,-942.52 177.77,-934.44 178.97,-927.01"/>
<polygon fill="black" stroke="black" points="182.43,-927.56 180.95,-917.07 175.56,-926.19 182.43,-927.56"/>
<text text-anchor="middle" x="181.5" y="-938.8" font-family="Times New Roman,serif" font-size="14.00">a</text>
</g>
<!-- 5&#45;&gt;8 -->
<g id="edge32" class="edge">
<title>5&#45;&gt;8</title>
<path fill="none" stroke="black" d="M148,-1054.6C148,-1010.46 148,-893.83 148,-840.41"/>
<polygon fill="black" stroke="black" points="151.5,-840.32 148,-830.32 144.5,-840.32 151.5,-840.32"/>
<text text-anchor="middle" x="153" y="-938.8" font-family="Times New Roman,serif" font-size="14.00">ε </text>
</g>
<!-- 5&#45;&gt;6 -->
<g id="edge6" class="edge">
<title>5&#45;&gt;6</title>
<path fill="none" stroke="black" d="M155.33,-1055.61C160.74,-1043.5 168.22,-1026.76 174.44,-1012.86"/>
<polygon fill="black" stroke="black" points="177.81,-1013.89 178.7,-1003.34 171.42,-1011.04 177.81,-1013.89"/>
<text text-anchor="middle" x="172.5" y="-1025.8" font-family="Times New Roman,serif" font-size="14.00">ε</text>
</g>
<!-- 1 -->
<g id="node19" class="node">
<title>1</title>
<ellipse fill="none" stroke="black" cx="249" cy="-1160" rx="27" ry="18"/>
<text text-anchor="middle" x="249" y="-1156.3" font-family="Times New Roman,serif" font-size="14.00">1</text>
</g>
<!-- 1&#45;&gt;2 -->
<g id="edge13" class="edge">
<title>1&#45;&gt;2</title>
<path fill="none" stroke="black" d="M249,-1141.8C249,-1130.16 249,-1114.54 249,-1101.23"/>
<polygon fill="black" stroke="black" points="252.5,-1101.17 249,-1091.17 245.5,-1101.17 252.5,-1101.17"/>
<text text-anchor="middle" x="252.5" y="-1112.8" font-family="Times New Roman,serif" font-size="14.00">ε</text>
</g>
<!-- 1&#45;&gt;4 -->
<g id="edge20" class="edge">
<title>1&#45;&gt;4</title>
<path fill="none" stroke="black" d="M259.58,-1143.27C267.97,-1129.95 279.21,-1110.04 285,-1091 300.94,-1038.55 307.21,-1021.19 294,-968 290.14,-952.45 282,-936.55 274.43,-924.04"/>
<polygon fill="black" stroke="black" points="277.39,-922.17 269.1,-915.58 271.47,-925.91 277.39,-922.17"/>
<text text-anchor="middle" x="306" y="-1025.8" font-family="Times New Roman,serif" font-size="14.00">ε </text>
</g>
<!-- 17 -->
<g id="node20" class="node">
<title>17</title>
<ellipse fill="none" stroke="black" cx="99" cy="-464" rx="27" ry="18"/>
<text text-anchor="middle" x="99" y="-460.3" font-family="Times New Roman,serif" font-size="14.00">17</text>
</g>
<!-- 17&#45;&gt;19 -->
<g id="edge25" class="edge">
<title>17&#45;&gt;19</title>
<path fill="none" stroke="black" d="M91.89,-446.2C86.78,-434.13 79.79,-417.63 73.97,-403.89"/>
<polygon fill="black" stroke="black" points="77.1,-402.31 69.98,-394.47 70.65,-405.04 77.1,-402.31"/>
<text text-anchor="middle" x="86.5" y="-416.8" font-family="Times New Roman,serif" font-size="14.00">ε</text>
</g>
<!-- 15&#45;&gt;17 -->
<g id="edge21" class="edge">
<title>15&#45;&gt;17</title>
<path fill="none" stroke="black" d="M99,-532.8C99,-521.16 99,-505.54 99,-492.23"/>
<polygon fill="black" stroke="black" points="102.5,-492.17 99,-482.17 95.5,-492.17 102.5,-492.17"/>
<text text-anchor="middle" x="103" y="-503.8" font-family="Times New Roman,serif" font-size="14.00">b</text>
</g>
<!-- 23&#45;&gt;24 -->
<g id="edge28" class="edge">
<title>23&#45;&gt;24</title>
<path fill="none" stroke="black" d="M94.85,-98.4C89.63,-86.29 82.41,-69.54 76.16,-55.04"/>
<polygon fill="black" stroke="black" points="79.2,-53.25 72.03,-45.45 72.77,-56.02 79.2,-53.25"/>
<text text-anchor="middle" x="88.5" y="-68.8" font-family="Times New Roman,serif" font-size="14.00">ε</text>
</g>
<!-- 23&#45;&gt;22 -->
<g id="edge26" class="edge">
<title>23&#45;&gt;22</title>
<path fill="none" stroke="black" d="M102,-134.17C102,-145.8 102,-161.42 102,-174.73"/>
<polygon fill="black" stroke="black" points="98.5,-174.8 102,-184.8 105.5,-174.8 98.5,-174.8"/>
<text text-anchor="middle" x="107" y="-155.8" font-family="Times New Roman,serif" font-size="14.00">ε </text>
</g>
<!-- 10&#45;&gt;9 -->
<g id="edge24" class="edge">
<title>10&#45;&gt;9</title>
<path fill="none" stroke="black" d="M124.73,-1229.2C128.78,-1217.33 134.3,-1201.16 138.94,-1187.55"/>
<polygon fill="black" stroke="black" points="142.37,-1188.35 142.28,-1177.75 135.74,-1186.09 142.37,-1188.35"/>
<text text-anchor="middle" x="140" y="-1199.8" font-family="Times New Roman,serif" font-size="14.00">ε </text>
</g>
<!-- 10&#45;&gt;1 -->
<g id="edge5" class="edge">
<title>10&#45;&gt;1</title>
<path fill="none" stroke="black" d="M137.63,-1233.82C159.73,-1219.36 196.77,-1195.15 222.02,-1178.64"/>
<polygon fill="black" stroke="black" points="223.95,-1181.55 230.41,-1173.15 220.12,-1175.7 223.95,-1181.55"/>
<text text-anchor="middle" x="194.5" y="-1199.8" font-family="Times New Roman,serif" font-size="14.00">ε</text>
</g>
</g>
</svg>
